# xmcd CD database file
#
# Track frame offsets:
#	150
#	20759
#	41144
#	65057
#	110536
#	141327
#	166583
#	198859
#
# Disc length: 3068 seconds
#
# Revision: 0
# Processed by: cddbd v1.5.2PL0 Copyright (c) Steve Scherf et al.
# Submitted via: CDex 1.70beta2
#
DISCID=700bfa08
DTITLE=Masacote - Masacote
DYEAR=1900
DGENRE=Salsa
TTITLE0=5 Beat Mambo
TTITLE1=Dimensional
TTITLE2=Struggle
TTITLE3=Ecstasy
TTITLE4=Isabel
TTITLE5=Impressionalize
TTITLE6=Lament
TTITLE7=Masacote
EXTD=
EXTT0=
EXTT1=
EXTT2=
EXTT3=
EXTT4=
EXTT5=
EXTT6=
EXTT7=
PLAYORDER=
